<svg width="173" height="22" viewBox="0 0 173 22" fill="none" xmlns="http://www.w3.org/2000/svg">
<path d="M3.19298 17H5.06362L8.1034 8.51763H6.28921L4.16055 15.2987H4.12024L1.99158 8.51763H0.137073L3.19298 17ZM12.4252 17.1693C14.8522 17.1693 16.4487 15.4922 16.4487 12.7588V12.7427C16.4487 10.0254 14.8361 8.35637 12.4172 8.35637C10.0063 8.35637 8.40174 10.0335 8.40174 12.7427V12.7588C8.40174 15.4841 9.99017 17.1693 12.4252 17.1693ZM12.4333 15.7099C11.0706 15.7099 10.1837 14.6375 10.1837 12.7588V12.7427C10.1837 10.8882 11.0787 9.81579 12.4172 9.81579C13.7798 9.81579 14.6668 10.8882 14.6668 12.7427V12.7588C14.6668 14.6295 13.7959 15.7099 12.4333 15.7099ZM18.7386 7.21141C19.3111 7.21141 19.7546 6.75988 19.7546 6.21159C19.7546 5.65523 19.3111 5.2037 18.7386 5.2037C18.1742 5.2037 17.7227 5.65523 17.7227 6.21159C17.7227 6.75988 18.1742 7.21141 18.7386 7.21141ZM17.8678 17H19.6094V8.51763H17.8678V17ZM25.052 17.1693C27.092 17.1693 28.5111 15.8631 28.6965 14.1618L28.7046 14.1054H27.0275L27.0194 14.1699C26.8098 15.089 26.1244 15.7099 25.052 15.7099C23.7055 15.7099 22.8105 14.6214 22.8105 12.7669V12.7588C22.8105 10.9446 23.6894 9.81579 25.044 9.81579C26.1809 9.81579 26.8259 10.5173 27.0113 11.3478L27.0275 11.4123H28.6885L28.6804 11.3558C28.5353 9.75935 27.2129 8.35637 25.0278 8.35637C22.6089 8.35637 21.0285 10.0577 21.0285 12.7427V12.7508C21.0285 15.468 22.5767 17.1693 25.052 17.1693ZM33.5586 17.1693C35.6147 17.1693 36.9209 15.9437 37.195 14.5972L37.2112 14.5085H35.5582L35.534 14.573C35.3163 15.21 34.631 15.7422 33.5989 15.7422C32.212 15.7422 31.3332 14.8068 31.3009 13.2023H37.3079V12.6137C37.3079 10.0657 35.8485 8.35637 33.4699 8.35637C31.0913 8.35637 29.5593 10.1302 29.5593 12.783V12.7911C29.5593 15.468 31.0671 17.1693 33.5586 17.1693ZM33.4779 9.78354C34.6148 9.78354 35.4373 10.5012 35.5824 11.9686H31.3251C31.4783 10.5495 32.3491 9.78354 33.4779 9.78354ZM38.6625 19.8221H40.4041V15.5728H40.4445C40.9444 16.5565 41.92 17.1693 43.1214 17.1693C45.2501 17.1693 46.645 15.468 46.645 12.7669V12.7588C46.645 10.0496 45.2581 8.35637 43.0972 8.35637C41.8877 8.35637 40.9524 8.96916 40.4445 9.97705H40.4041V8.51763H38.6625V19.8221ZM42.6457 15.6696C41.3314 15.6696 40.3961 14.5246 40.3961 12.7669V12.7588C40.3961 10.993 41.3233 9.84804 42.6457 9.84804C44.0083 9.84804 44.8711 10.9527 44.8711 12.7588V12.7669C44.8711 14.5569 44.0164 15.6696 42.6457 15.6696ZM48.9429 7.21141C49.5154 7.21141 49.9589 6.75988 49.9589 6.21159C49.9589 5.65523 49.5154 5.2037 48.9429 5.2037C48.3785 5.2037 47.927 5.65523 47.927 6.21159C47.927 6.75988 48.3785 7.21141 48.9429 7.21141ZM48.0721 17H49.8138V8.51763H48.0721V17ZM51.6763 17H53.418V5.36496H51.6763V17ZM58.8525 17.1693C61.2795 17.1693 62.876 15.4922 62.876 12.7588V12.7427C62.876 10.0254 61.2634 8.35637 58.8444 8.35637C56.4336 8.35637 54.829 10.0335 54.829 12.7427V12.7588C54.829 15.4841 56.4174 17.1693 58.8525 17.1693ZM58.8606 15.7099C57.4979 15.7099 56.611 14.6375 56.611 12.7588V12.7427C56.611 10.8882 57.506 9.81579 58.8444 9.81579C60.2071 9.81579 61.094 10.8882 61.094 12.7427V12.7588C61.094 14.6295 60.2232 15.7099 58.8606 15.7099ZM67.1978 17.1693C67.5526 17.1693 67.8831 17.129 68.0847 17.0968V15.7502C67.9557 15.7663 67.8025 15.7825 67.6171 15.7825C66.8833 15.7825 66.4963 15.5245 66.4963 14.6617V9.90448H68.0847V8.51763H66.4963V6.30834H64.7144V8.51763H63.4968V9.90448H64.7144V14.7665C64.7144 16.4598 65.5207 17.1693 67.1978 17.1693Z" fill="#C9C9C9"/>
<rect x="98" y="1" width="75" height="20.3563" rx="10.1782" fill="#323232"/>
<path d="M106.85 7.42991L108.296 7.38132C108.466 7.37322 108.705 7.36917 109.013 7.36917C109.903 7.36917 110.592 7.44611 111.078 7.59998C111.572 7.75385 111.92 8.0049 112.122 8.35313C112.333 8.70136 112.438 9.18727 112.438 9.81085C112.438 10.2239 112.394 10.5519 112.305 10.7948C112.224 11.0297 112.082 11.2119 111.879 11.3415C111.677 11.4629 111.39 11.552 111.017 11.6087V11.718C111.357 11.7747 111.608 11.9002 111.77 12.0946C111.94 12.289 112.09 12.6251 112.22 13.1029L112.912 15.6782H111.248L110.677 13.2122C110.596 12.8559 110.45 12.617 110.24 12.4955C110.029 12.3659 109.673 12.3011 109.171 12.3011H108.393V15.6782H106.85V7.42991ZM109.96 10.9527C110.325 10.9527 110.572 10.8677 110.701 10.6976C110.839 10.5195 110.908 10.2036 110.908 9.75011C110.908 9.39378 110.839 9.14678 110.701 9.0091C110.563 8.86333 110.308 8.7783 109.936 8.754C109.49 8.72971 109.15 8.71756 108.915 8.71756C108.681 8.71756 108.506 8.72161 108.393 8.72971V10.9527H109.96ZM114.45 7.41776H119.576V8.754H116.005V10.7219H119.09V12.0582H116.005V14.3419H119.819V15.6782H114.45V7.41776ZM124.236 15.7875C123.394 15.7875 122.742 15.7106 122.281 15.5567C121.827 15.4028 121.507 15.1396 121.321 14.7671C121.135 14.3946 121.054 13.8682 121.078 13.1879H122.596C122.621 13.528 122.685 13.7912 122.791 13.9775C122.896 14.1557 123.066 14.2812 123.301 14.3541C123.544 14.427 123.888 14.4634 124.333 14.4634C124.722 14.4634 125.022 14.4351 125.232 14.3784C125.451 14.3217 125.605 14.2245 125.694 14.0868C125.783 13.941 125.828 13.7386 125.828 13.4794C125.828 13.2365 125.763 13.03 125.633 12.8599C125.504 12.6898 125.289 12.536 124.989 12.3983C124.698 12.2525 124.281 12.0987 123.738 11.9367C123.058 11.7342 122.532 11.5318 122.159 11.3293C121.795 11.1187 121.535 10.8717 121.382 10.5883C121.228 10.3049 121.151 9.94447 121.151 9.50716C121.151 8.93217 121.24 8.48675 121.418 8.17092C121.604 7.85508 121.912 7.63237 122.341 7.5028C122.779 7.36512 123.394 7.29629 124.188 7.29629C124.965 7.29629 125.564 7.36512 125.986 7.5028C126.415 7.64047 126.722 7.87532 126.909 8.20736C127.095 8.53939 127.184 9.01315 127.176 9.62863H125.633C125.609 9.36139 125.548 9.15892 125.451 9.02125C125.362 8.87548 125.212 8.77425 125.002 8.71756C124.799 8.65277 124.512 8.62038 124.139 8.62038C123.75 8.62038 123.451 8.64872 123.24 8.70541C123.038 8.7621 122.892 8.85523 122.803 8.98481C122.714 9.11438 122.669 9.3047 122.669 9.55575C122.669 9.7906 122.823 10.0012 123.131 10.1874C123.447 10.3656 124.005 10.5802 124.807 10.8313C125.471 11.0418 125.981 11.2564 126.338 11.4751C126.702 11.6937 126.961 11.961 127.115 12.2768C127.269 12.5846 127.346 12.9814 127.346 13.4673C127.346 14.0747 127.253 14.5444 127.067 14.8764C126.88 15.2085 126.565 15.4433 126.119 15.581C125.682 15.7187 125.054 15.7875 124.236 15.7875ZM129.018 7.41776H134.144V8.754H130.573V10.7219H133.658V12.0582H130.573V14.3419H134.387V15.6782H129.018V7.41776ZM137.796 7.41776H139.764L142.23 15.6782H140.687L140.092 13.6981H137.468L136.872 15.6782H135.33L137.796 7.41776ZM139.727 12.3983L138.792 8.92407H138.768L137.832 12.3983H139.727ZM143.27 7.42991L144.715 7.38132C144.885 7.37322 145.124 7.36917 145.432 7.36917C146.323 7.36917 147.011 7.44611 147.497 7.59998C147.991 7.75385 148.339 8.0049 148.542 8.35313C148.752 8.70136 148.857 9.18727 148.857 9.81085C148.857 10.2239 148.813 10.5519 148.724 10.7948C148.643 11.0297 148.501 11.2119 148.299 11.3415C148.096 11.4629 147.809 11.552 147.436 11.6087V11.718C147.776 11.7747 148.027 11.9002 148.189 12.0946C148.359 12.289 148.509 12.6251 148.639 13.1029L149.331 15.6782H147.667L147.096 13.2122C147.015 12.8559 146.869 12.617 146.659 12.4955C146.448 12.3659 146.092 12.3011 145.59 12.3011H144.812V15.6782H143.27V7.42991ZM146.379 10.9527C146.744 10.9527 146.991 10.8677 147.12 10.6976C147.258 10.5195 147.327 10.2036 147.327 9.75011C147.327 9.39378 147.258 9.14678 147.12 9.0091C146.983 8.86333 146.728 8.7783 146.355 8.754C145.91 8.72971 145.57 8.71756 145.335 8.71756C145.1 8.71756 144.926 8.72161 144.812 8.72971V10.9527H146.379ZM153.651 15.7875C152.793 15.7875 152.133 15.662 151.671 15.4109C151.209 15.1518 150.881 14.7225 150.687 14.1233C150.493 13.524 150.395 12.6696 150.395 11.5601C150.395 10.4425 150.493 9.58004 150.687 8.97266C150.881 8.36528 151.209 7.93606 151.671 7.68501C152.133 7.42586 152.793 7.29629 153.651 7.29629C154.372 7.29629 154.931 7.37322 155.327 7.52709C155.724 7.67286 156.012 7.92391 156.19 8.28024C156.368 8.62848 156.469 9.12653 156.494 9.77441H154.975C154.894 9.32899 154.761 9.0253 154.574 8.86333C154.388 8.70136 154.08 8.62038 153.651 8.62038C153.206 8.62038 152.861 8.70946 152.618 8.88763C152.376 9.05769 152.201 9.35329 152.096 9.77441C151.999 10.1955 151.95 10.7908 151.95 11.5601C151.95 12.3214 151.999 12.9085 152.096 13.3215C152.201 13.7345 152.376 14.0301 152.618 14.2083C152.861 14.3784 153.206 14.4634 153.651 14.4634C154.129 14.4634 154.465 14.3905 154.659 14.2447C154.854 14.0909 154.983 13.8034 155.048 13.3823H156.566C156.526 14.0139 156.413 14.5039 156.226 14.8521C156.04 15.1923 155.744 15.4352 155.34 15.581C154.943 15.7187 154.38 15.7875 153.651 15.7875ZM157.679 7.41776H159.234V10.6976H162.028V7.41776H163.583V15.6782H162.028V12.0703H159.234V15.6782H157.679V7.41776Z" fill="#ABABAB"/>
<path d="M85.6266 11.1865C85.6266 7.70326 84.5381 4.45383 82.5707 1.76076C81.8531 0.793191 80.434 1.68013 81.1839 2.67189C82.9981 5.10694 83.9576 8.03384 83.9576 11.1865C83.9576 14.3392 82.9981 17.2661 81.2 19.685C80.4582 20.6606 81.837 21.604 82.5788 20.5961C84.5381 17.9192 85.6266 14.6698 85.6266 11.1865ZM81.1113 11.1865C81.1113 8.59826 80.2889 6.16321 78.8133 4.19581C78.0312 3.15568 76.6766 4.17163 77.4103 5.10694C78.7407 6.82438 79.4503 8.92885 79.4503 11.1865C79.4503 13.4442 78.7407 15.5486 77.4103 17.258C76.6766 18.1933 78.0312 19.2093 78.8133 18.1691C80.2889 16.2018 81.1113 13.7748 81.1113 11.1865ZM76.604 11.1865C76.604 9.50133 76.0235 7.92096 74.9995 6.67925C74.2254 5.7278 72.9918 6.75181 73.6126 7.57425C74.5721 8.81596 74.935 9.82385 74.935 11.1865C74.935 12.5492 74.5721 13.5571 73.6126 14.7988C72.9918 15.6212 74.2335 16.6291 74.9995 15.6938C76.0235 14.4521 76.604 12.8636 76.604 11.1865Z" fill="url(#paint0_linear_125_6)"/>
<defs>
<linearGradient id="paint0_linear_125_6" x1="88" y1="11" x2="72" y2="11" gradientUnits="userSpaceOnUse">
<stop stop-color="#C9C9C9"/>
<stop offset="1" stop-color="#C9C9C9" stop-opacity="0.65"/>
</linearGradient>
</defs>
</svg>
